<svg width="24" height="24" viewBox="0 0 24 24" fill="none" xmlns="http://www.w3.org/2000/svg">
<path d="M11.1806 7.46561C11.1806 7.86047 11.6347 8.0872 11.9556 7.85255L15.2567 5.43863C15.5197 5.24633 15.5197 4.85707 15.2567 4.66476L11.9556 2.25062C11.6347 2.01595 11.1806 2.24267 11.1806 2.63754V3.77192C11.1806 3.82289 11.1401 3.86499 11.0887 3.8685C6.79436 4.16215 3.40283 7.70284 3.40283 12.0275C3.40283 16.5445 7.1027 20.2062 11.6667 20.2062C16.0674 20.2062 19.6646 16.8019 19.9165 12.5091C19.9321 12.2439 19.713 12.0279 19.4445 12.0279H17.9861C17.7177 12.0279 17.5021 12.2441 17.4801 12.5089C17.2329 15.4721 14.7246 17.8007 11.6667 17.8007C8.44506 17.8007 5.83339 15.2159 5.83339 12.0275C5.83339 9.03683 8.13151 6.5773 11.0752 6.28367C11.1317 6.27802 11.1806 6.32233 11.1806 6.37859V7.46561Z" fill="#F5F5F5"/>
<path d="M10.1826 14.3018C10.2363 14.3018 10.2799 14.2587 10.2799 14.2056V10.1993C10.2799 10.1462 10.2363 10.1031 10.1826 10.1031H9.3568C9.33865 10.1031 9.32087 10.1081 9.30546 10.1176L8.32882 10.7186C8.30028 10.7362 8.28293 10.7671 8.28293 10.8003V11.4527C8.28293 11.5279 8.36608 11.574 8.43086 11.5348L9.22702 11.0531C9.23006 11.0512 9.23357 11.0503 9.23714 11.0503C9.24785 11.0503 9.25653 11.0589 9.25653 11.0695V14.2056C9.25653 14.2587 9.30006 14.3018 9.35376 14.3018H10.1826Z" fill="#F5F5F5"/>
<path d="M12.6007 14.1931C12.8409 14.3038 13.1158 14.3592 13.4251 14.3592C13.7552 14.3592 14.0431 14.2963 14.2889 14.1706C14.5361 14.0435 14.7281 13.8685 14.8648 13.6457C15.0029 13.423 15.0719 13.1674 15.0719 12.879C15.0719 12.6125 15.0139 12.376 14.8979 12.1696C14.7833 11.9633 14.6259 11.802 14.4256 11.6858C14.2268 11.5683 14.0003 11.5095 13.7462 11.5095C13.5459 11.5095 13.3671 11.5478 13.2097 11.6243C13.0568 11.6979 12.945 11.7912 12.8743 11.9042C12.8716 11.9086 12.8667 11.9113 12.8615 11.9113C12.8527 11.9113 12.8458 11.9038 12.8467 11.8951L12.9339 11.008C12.9388 10.9587 12.9806 10.9211 13.0307 10.9211H14.7241C14.7778 10.9211 14.8213 10.878 14.8213 10.8249V10.1993C14.8213 10.1462 14.7778 10.1031 14.7241 10.1031H12.1891C12.1384 10.1031 12.0962 10.1416 12.0921 10.1916L11.922 12.2801C11.918 12.3292 11.9521 12.3733 12.001 12.3824L12.7534 12.5222C12.7936 12.5296 12.8334 12.5109 12.8584 12.479C12.912 12.4105 12.9821 12.3545 13.0688 12.3111C13.1793 12.2564 13.296 12.2298 13.4189 12.2311C13.5487 12.2311 13.6633 12.2598 13.7628 12.3172C13.8636 12.3733 13.9423 12.4519 13.9989 12.553C14.0569 12.6542 14.0852 12.7724 14.0838 12.9077C14.0852 13.0403 14.0576 13.1578 14.001 13.2603C13.9444 13.3615 13.8663 13.44 13.7669 13.4961C13.6675 13.5521 13.5535 13.5801 13.4251 13.5801C13.2608 13.5801 13.1192 13.5337 13.0005 13.4407C12.9058 13.3656 12.8463 13.2713 12.8218 13.158C12.811 13.108 12.7694 13.0676 12.7177 13.0676H11.9149C11.8604 13.0676 11.8161 13.112 11.8212 13.1658C11.8412 13.3774 11.9111 13.5675 12.031 13.7359C12.1705 13.93 12.3604 14.0824 12.6007 14.1931Z" fill="#F5F5F5"/>
</svg>
