<svg width="24" height="24" viewBox="0 0 24 24" fill="none" xmlns="http://www.w3.org/2000/svg">
<path d="M12.1527 7.46561C12.1527 7.86047 11.6986 8.0872 11.3777 7.85255L8.07659 5.43863C7.81361 5.24633 7.8136 4.85707 8.07657 4.66476L11.3777 2.25062C11.6986 2.01595 12.1527 2.24267 12.1527 2.63754V3.77192C12.1527 3.82289 12.1932 3.86499 12.2446 3.8685C16.539 4.16215 19.9305 7.70284 19.9305 12.0275C19.9305 16.5445 16.2306 20.2062 11.6666 20.2062C7.26594 20.2062 3.66868 16.8019 3.4168 12.5091C3.40123 12.2439 3.62036 12.0279 3.88884 12.0279H5.34719C5.61564 12.0279 5.83117 12.2441 5.85325 12.5089C6.1004 15.4721 8.60873 17.8007 11.6666 17.8007C14.8883 17.8007 17.4999 15.2159 17.4999 12.0275C17.4999 9.03683 15.2018 6.5773 12.2581 6.28367C12.2016 6.27802 12.1527 6.32233 12.1527 6.37859V7.46561Z" fill="#F5F5F5"/>
<path d="M10.1825 14.3018C10.2362 14.3018 10.2797 14.2587 10.2797 14.2056V10.1993C10.2797 10.1462 10.2362 10.1031 10.1825 10.1031H9.35667C9.33853 10.1031 9.32074 10.1081 9.30534 10.1176L8.32869 10.7186C8.30016 10.7362 8.2828 10.7671 8.2828 10.8003V11.4527C8.2828 11.5279 8.36595 11.574 8.43074 11.5348L9.22689 11.0531C9.22994 11.0512 9.23344 11.0503 9.23701 11.0503C9.24772 11.0503 9.25641 11.0589 9.25641 11.0695V14.2056C9.25641 14.2587 9.29994 14.3018 9.35363 14.3018H10.1825Z" fill="#F5F5F5"/>
<path d="M12.6005 14.1931C12.8408 14.3038 13.1156 14.3592 13.425 14.3592C13.755 14.3592 14.043 14.2963 14.2888 14.1706C14.536 14.0435 14.728 13.8685 14.8647 13.6457C15.0028 13.423 15.0718 13.1674 15.0718 12.879C15.0718 12.6125 15.0138 12.376 14.8978 12.1696C14.7832 11.9633 14.6258 11.802 14.4255 11.6858C14.2267 11.5683 14.0002 11.5095 13.7461 11.5095C13.5458 11.5095 13.367 11.5478 13.2095 11.6243C13.0567 11.6979 12.9449 11.7912 12.8742 11.9042C12.8715 11.9086 12.8666 11.9113 12.8614 11.9113C12.8526 11.9113 12.8457 11.9038 12.8466 11.8951L12.9338 11.008C12.9386 10.9587 12.9805 10.9211 13.0305 10.9211H14.7239C14.7776 10.9211 14.8212 10.878 14.8212 10.8249V10.1993C14.8212 10.1462 14.7776 10.1031 14.7239 10.1031H12.1889C12.1383 10.1031 12.0961 10.1416 12.092 10.1916L11.9219 12.2801C11.9179 12.3292 11.952 12.3733 12.0009 12.3824L12.7533 12.5222C12.7934 12.5296 12.8333 12.5109 12.8583 12.479C12.9119 12.4105 12.982 12.3545 13.0687 12.3111C13.1792 12.2564 13.2959 12.2298 13.4188 12.2311C13.5486 12.2311 13.6632 12.2598 13.7626 12.3172C13.8635 12.3733 13.9422 12.4519 13.9988 12.553C14.0568 12.6542 14.0851 12.7724 14.0837 12.9077C14.0851 13.0403 14.0575 13.1578 14.0009 13.2603C13.9442 13.3615 13.8662 13.44 13.7668 13.4961C13.6673 13.5521 13.5534 13.5801 13.425 13.5801C13.2606 13.5801 13.1191 13.5337 13.0003 13.4407C12.9057 13.3656 12.8461 13.2713 12.8216 13.158C12.8108 13.108 12.7692 13.0676 12.7176 13.0676H11.9148C11.8603 13.0676 11.816 13.112 11.8211 13.1658C11.8411 13.3774 11.911 13.5675 12.0309 13.7359C12.1703 13.93 12.3602 14.0824 12.6005 14.1931Z" fill="#F5F5F5"/>
</svg>
